<svg width="27" height="23" viewBox="0 0 27 23" fill="none" xmlns="http://www.w3.org/2000/svg">
  <path
    d="M17.9219 14.8906H0.734375V10.7969H17.25C18.6667 10.7969 19.6927 10.5469 20.3281 10.0469C20.9635 9.54688 21.2812 8.71354 21.2812 7.54688C21.2812 6.44271 20.9635 5.64062 20.3281 5.14062C19.7031 4.64062 18.6771 4.39062 17.25 4.39062H9V23H3.3125V0.25H17.9688C20.8854 0.25 23.1042 0.869792 24.625 2.10938C26.1458 3.34896 26.9062 5.14583 26.9062 7.5C26.9062 9.875 26.1458 11.6979 24.625 12.9688C23.1042 14.2396 20.8698 14.8802 17.9219 14.8906ZM20.0781 17.0469V20.625H0.734375V17.0469H20.0781Z"
    fill="#CA0100" />
</svg>